<svg xmlns="http://www.w3.org/2000/svg" viewBox="0 0 360 80">
  <defs>
    <linearGradient id="gold" x1="0%" y1="0%" x2="100%" y2="100%">
      <stop offset="0%" style="stop-color:#d4a843"/>
      <stop offset="100%" style="stop-color:#c49a38"/>
    </linearGradient>
  </defs>
  <!-- CL Monogram -->
  <g transform="translate(8, 8)">
    <path d="M32,4 A28,28 0 1,0 32,60" fill="none" stroke="url(#gold)" stroke-width="3.5" stroke-linecap="round"/>
    <path d="M32,10 A22,22 0 1,0 32,54" fill="none" stroke="url(#gold)" stroke-width="3" stroke-linecap="round"/>
    <path d="M32,16 A16,16 0 1,0 32,48" fill="none" stroke="url(#gold)" stroke-width="2.5" stroke-linecap="round"/>
    <line x1="30" y1="12" x2="30" y2="56" stroke="url(#gold)" stroke-width="3"/>
    <line x1="36" y1="12" x2="36" y2="56" stroke="url(#gold)" stroke-width="2.5"/>
    <line x1="42" y1="12" x2="42" y2="56" stroke="url(#gold)" stroke-width="2"/>
    <line x1="30" y1="50" x2="52" y2="50" stroke="url(#gold)" stroke-width="3"/>
    <line x1="30" y1="56" x2="52" y2="56" stroke="url(#gold)" stroke-width="2.5"/>
    <line x1="36" y1="44" x2="48" y2="44" stroke="url(#gold)" stroke-width="2"/>
  </g>
  <!-- COMO text - dark for scrolled header -->
  <text x="82" y="38" font-family="Inter, Arial, sans-serif" font-weight="800" font-size="28" fill="#1a365d" letter-spacing="3">COMO</text>
  <text x="82" y="62" font-family="Inter, Arial, sans-serif" font-weight="800" font-size="28" fill="#1a365d" letter-spacing="3">LOGISTICS</text>
</svg>
